<svg width="24" height="25" viewBox="0 0 24 25" fill="none" xmlns="http://www.w3.org/2000/svg">
<path d="M2 12.0795C2 9.36247 2.01 9.02347 2.06 7.95747C2.11 6.89247 2.277 6.16747 2.525 5.52947C2.779 4.86947 3.123 4.31347 3.678 3.75747C4.1779 3.24897 4.78259 2.85551 5.45 2.60447C6.087 2.35747 6.813 2.18947 7.878 2.13947C8.944 2.09247 9.283 2.07947 12 2.07947C14.717 2.07947 15.056 2.08947 16.122 2.13947C17.187 2.18947 17.912 2.35747 18.55 2.60447C19.2178 2.85479 19.8226 3.24835 20.322 3.75747C20.8303 4.2575 21.2238 4.86216 21.475 5.52947C21.722 6.16647 21.89 6.89247 21.94 7.95747C21.987 9.02347 22 9.36247 22 12.0795C22 14.7965 21.99 15.1355 21.94 16.2015C21.89 17.2665 21.722 17.9915 21.475 18.6295C21.2245 19.2971 20.8309 19.9019 20.322 20.4015C19.8222 20.9101 19.2175 21.3035 18.55 21.5545C17.913 21.8025 17.187 21.9695 16.122 22.0195C15.056 22.0665 14.717 22.0795 12 22.0795C9.283 22.0795 8.944 22.0695 7.878 22.0195C6.812 21.9695 6.088 21.8025 5.45 21.5545C4.78218 21.3042 4.17732 20.9107 3.678 20.4015C3.16923 19.9018 2.77573 19.297 2.525 18.6295C2.277 17.9915 2.11 17.2675 2.06 16.2015C2.013 15.1355 2 14.7965 2 12.0795ZM7 12.0795C7 13.4055 7.52678 14.6773 8.46447 15.615C9.40215 16.5527 10.6739 17.0795 12 17.0795C13.3261 17.0795 14.5979 16.5527 15.5355 15.615C16.4732 14.6773 17 13.4055 17 12.0795C17 10.7534 16.4732 9.48162 15.5355 8.54393C14.5979 7.60625 13.3261 7.07947 12 7.07947C10.6739 7.07947 9.40215 7.60625 8.46447 8.54393C7.52678 9.48162 7 10.7534 7 12.0795ZM6.75 5.57947C6.41848 5.57947 6.10054 5.71116 5.86612 5.94558C5.6317 6.18 5.5 6.49795 5.5 6.82947C5.5 7.16099 5.6317 7.47893 5.86612 7.71335C6.10054 7.94777 6.41848 8.07947 6.75 8.07947C7.08152 8.07947 7.39946 7.94777 7.63388 7.71335C7.8683 7.47893 8 7.16099 8 6.82947C8 6.49795 7.8683 6.18 7.63388 5.94558C7.39946 5.71116 7.08152 5.57947 6.75 5.57947ZM9 12.0795C9 11.2838 9.31607 10.5208 9.87868 9.95815C10.4413 9.39554 11.2043 9.07947 12 9.07947C12.7956 9.07947 13.5587 9.39554 14.1213 9.95815C14.6839 10.5208 15 11.2838 15 12.0795C15 12.8751 14.6839 13.6382 14.1213 14.2008C13.5587 14.7634 12.7956 15.0795 12 15.0795C11.2044 15.0795 10.4413 14.7634 9.87868 14.2008C9.31607 13.6382 9 12.8751 9 12.0795Z" fill="white"/>
</svg>
