<svg width="24" height="25" viewBox="0 0 24 25" fill="none" xmlns="http://www.w3.org/2000/svg">
<path d="M18.339 5.74447L18.339 8.40947L14.162 8.40947C13.166 8.40947 11.884 8.42947 11.884 9.79947C11.884 11.1885 12.968 11.4005 14.089 11.4005L18.339 11.4005L18.339 14.0665L9.75 14.0665L9.75 11.5065L10.92 11.5065L10.92 11.4715C10.246 11.1135 9.533 10.2435 9.533 8.94347C9.533 6.24347 11.311 5.74347 13.624 5.74347L18.339 5.74347L18.339 5.74447ZM8.575 17.0765C8.57526 17.2799 8.53537 17.4814 8.45761 17.6694C8.37984 17.8574 8.26574 18.0282 8.12184 18.172C7.97793 18.3158 7.80706 18.4298 7.61901 18.5075C7.43097 18.5851 7.22944 18.6249 7.026 18.6245C6.71983 18.6243 6.4206 18.5333 6.16615 18.363C5.91169 18.1928 5.71343 17.9509 5.59645 17.6679C5.47947 17.385 5.44902 17.0737 5.50894 16.7735C5.56886 16.4732 5.71647 16.1975 5.93311 15.9812C6.14974 15.7648 6.42566 15.6176 6.72598 15.558C7.0263 15.4985 7.33753 15.5293 7.62032 15.6467C7.9031 15.764 8.14474 15.9626 8.31467 16.2173C8.4846 16.472 8.5752 16.7713 8.575 17.0775L8.575 17.0765ZM18.339 15.7405L18.339 18.4135L9.75 18.4135L9.75 15.7395L18.339 15.7395L18.339 15.7405ZM3 4.40947L3 19.7505C3 20.4865 3.58 21.0795 4.297 21.0795L19.703 21.0795C20.42 21.0795 21 20.4855 21 19.7515L21 4.41347C21 3.67947 20.42 3.07947 19.703 3.07947L4.297 3.07947C3.58 3.07947 3 3.67947 3 4.41347L3 4.41047L3 4.40947Z" fill="white"/>
</svg>
