<svg width="24" height="25" viewBox="0 0 24 25" fill="none" xmlns="http://www.w3.org/2000/svg">
<path d="M2.09408 10.7095C1.76493 13.1022 2.31263 15.5332 3.63604 17.5537C4.95944 19.5741 6.96918 21.0474 9.29414 21.7017C11.6191 22.3559 14.1023 22.1469 16.2851 21.1131C18.468 20.0794 20.2031 18.2907 21.1701 16.0775C20.4019 16.1373 19.6291 16.0824 18.8771 15.9145C18.0381 15.7295 13.4141 14.6185 13.4141 14.6185C12.9182 14.8397 12.38 14.9503 11.8371 14.9425C10.3521 14.9425 9.24408 14.0855 9.24408 13.0195C9.24129 12.828 9.27977 12.6381 9.35691 12.4628C9.43404 12.2875 9.54802 12.1309 9.6911 12.0035C9.83417 11.8762 10.003 11.7812 10.1861 11.7249C10.3691 11.6687 10.5622 11.6525 10.7521 11.6775C11.6521 11.6775 13.0141 12.2555 14.2921 12.5575C14.5265 12.6172 14.7716 12.621 15.0077 12.5685C15.2438 12.5161 15.4643 12.409 15.6514 12.2557C15.8385 12.1025 15.987 11.9074 16.0849 11.6863C16.1828 11.4651 16.2274 11.224 16.2151 10.9825C16.2151 9.08449 13.7841 7.81249 10.9141 7.81249C8.71408 7.81249 7.06608 9.26949 7.06608 11.9555C7.04111 12.5981 7.147 13.2391 7.37733 13.8396C7.60766 14.44 7.95762 14.9874 8.40597 15.4484C8.85431 15.9095 9.39168 16.2746 9.98545 16.5217C10.5792 16.7687 11.217 16.8925 11.8601 16.8855C12.5734 16.9141 13.273 16.684 13.8301 16.2375C13.8924 16.1541 13.9801 16.0931 14.08 16.0639C14.1799 16.0347 14.2867 16.0388 14.3841 16.0755C14.5681 16.1215 15.0071 16.2375 15.1681 16.2835C15.2227 16.2931 15.2743 16.3153 15.3187 16.3485C15.3631 16.3816 15.3991 16.4247 15.4238 16.4744C15.4486 16.524 15.4613 16.5787 15.461 16.6341C15.4607 16.6896 15.4473 16.7442 15.4221 16.7935C14.8681 18.1775 13.3451 18.8295 11.6061 18.8295C8.75908 18.8295 5.35108 16.4455 5.35108 11.6755C5.35108 7.87949 8.12808 5.35549 11.0981 5.35549C15.0071 5.35549 17.9461 7.53249 17.9461 10.7495C17.9614 11.2303 17.8553 11.7072 17.6375 12.1362C17.4198 12.5651 17.0973 12.9322 16.7001 13.2035C16.7001 13.2035 19.0161 13.7815 19.4541 13.8955C20.2108 14.1282 20.9289 14.4716 21.5851 14.9145C21.8651 13.9915 22.0051 13.0325 22.0011 12.0685C22.0021 10.7549 21.7441 9.45403 21.2417 8.24033C20.7392 7.02662 20.0024 5.92395 19.0732 4.99543C18.144 4.06691 17.0408 3.3308 15.8268 2.82924C14.6127 2.32768 13.3117 2.07052 11.9981 2.07249C9.58307 2.07374 7.25007 2.94871 5.42986 4.53587C3.60964 6.12302 2.42514 8.31515 2.09508 10.7075L2.09408 10.7095Z" fill="white"/>
</svg>
