<svg width="24" height="25" viewBox="0 0 24 25" fill="none" xmlns="http://www.w3.org/2000/svg">
<path d="M5.65593 1.91741C5.99362 2.68086 6.2154 3.49045 6.31393 4.31941C5.79136 3.44566 4.96894 2.79171 3.99993 2.47941C4.48793 3.29941 4.82993 4.19841 5.01493 5.13541C4.3415 5.76481 3.89489 6.59906 3.74451 7.50846C3.59413 8.41786 3.74842 9.35147 4.18338 10.1641C4.61834 10.9768 5.30961 11.623 6.14972 12.0023C6.98983 12.3816 7.93171 12.4727 8.82893 12.2614C8.74558 13.9243 8.31345 15.5511 7.56059 17.0361C6.80773 18.5212 5.75097 19.8313 4.45893 20.8814C5.09738 21.2531 5.82315 21.4485 6.56193 21.4474C8.01193 21.4474 9.29293 20.7094 10.0429 19.5874C10.022 20.2514 9.84271 20.9008 9.51993 21.4814L9.57193 21.4814C10.5376 21.4812 11.4735 21.147 12.221 20.5356C12.9684 19.9241 13.4814 19.0729 13.6729 18.1264C13.84 18.7428 13.8646 19.3891 13.7449 20.0164C14.5762 19.7495 15.3031 19.2294 15.824 18.5288C16.3449 17.8282 16.6337 16.9823 16.6499 16.1094C17.3313 16.9769 17.8349 17.9702 18.1321 19.0325C18.4293 20.0948 18.5142 21.2053 18.3819 22.3004C19.6114 20.3887 20.264 18.1633 20.2619 15.8904C20.2619 8.19741 13.8889 3.99041 8.36193 3.99041C8.18193 3.99041 7.99993 3.99541 7.82193 4.00341C7.23009 3.18455 6.49695 2.47782 5.65693 1.91641L5.65593 1.91741Z" fill="white"/>
</svg>
