<svg width="230" height="31" viewBox="0 0 230 31" fill="none" xmlns="http://www.w3.org/2000/svg">
<path d="M12.998 5.87305V8.00105H15.826V10.577H12.83C12.5313 12.3504 11.794 13.6384 10.618 14.441C9.46068 15.2437 7.70601 15.645 5.35401 15.645V17.129C5.35401 18.0064 5.53135 18.697 5.88601 19.201C6.25935 19.705 6.88468 19.957 7.76201 19.957C8.60201 19.957 9.20868 19.7237 9.58201 19.257C9.95535 18.7717 10.142 18.0717 10.142 17.157H13.782C13.7447 19.0424 13.2127 20.489 12.186 21.497C11.1593 22.4864 9.69401 22.981 7.79001 22.981C5.81135 22.981 4.29935 22.449 3.25401 21.385C2.20868 20.321 1.68601 18.7717 1.68601 16.737V13.013C3.68335 13.013 5.15801 12.9664 6.11001 12.873C7.06201 12.761 7.77135 12.537 8.23801 12.201C8.70468 11.865 9.01268 11.3237 9.16201 10.577H0.790014V8.00105H9.30201V5.87305H0.790014V3.12905H15.826V5.87305H12.998ZM31.9352 5.67705H22.8632V10.465C23.2552 9.97972 23.8152 9.58772 24.5432 9.28905C25.2712 8.97172 26.0459 8.81305 26.8672 8.81305C28.3605 8.81305 29.5832 9.13972 30.5352 9.79305C31.4872 10.4464 32.1779 11.2864 32.6072 12.313C33.0365 13.321 33.2512 14.4037 33.2512 15.561C33.2512 17.7077 32.6352 19.4344 31.4032 20.741C30.1899 22.0477 28.4539 22.701 26.1952 22.701C24.0672 22.701 22.3685 22.169 21.0992 21.105C19.8299 20.041 19.1112 18.6504 18.9432 16.933H22.7512C22.9192 17.6797 23.2925 18.277 23.8712 18.725C24.4685 19.173 25.2245 19.397 26.1392 19.397C27.2405 19.397 28.0712 19.0517 28.6312 18.361C29.1912 17.6704 29.4712 16.7557 29.4712 15.617C29.4712 14.4597 29.1819 13.5824 28.6032 12.985C28.0432 12.369 27.2125 12.061 26.1112 12.061C25.3272 12.061 24.6739 12.257 24.1512 12.649C23.6285 13.041 23.2552 13.5637 23.0312 14.217H19.2792V2.23305H31.9352V5.67705ZM36.2347 12.229C36.2347 8.99972 36.8134 6.47038 37.9707 4.64105C39.1467 2.81172 41.0881 1.89705 43.7947 1.89705C46.5014 1.89705 48.4334 2.81172 49.5907 4.64105C50.7667 6.47038 51.3547 8.99972 51.3547 12.229C51.3547 15.477 50.7667 18.025 49.5907 19.873C48.4334 21.721 46.5014 22.645 43.7947 22.645C41.0881 22.645 39.1467 21.721 37.9707 19.873C36.8134 18.025 36.2347 15.477 36.2347 12.229ZM47.4907 12.229C47.4907 10.8477 47.3974 9.69038 47.2107 8.75705C47.0427 7.80505 46.6881 7.03038 46.1467 6.43305C45.6241 5.83572 44.8401 5.53705 43.7947 5.53705C42.7494 5.53705 41.9561 5.83572 41.4147 6.43305C40.8921 7.03038 40.5374 7.80505 40.3507 8.75705C40.1827 9.69038 40.0987 10.8477 40.0987 12.229C40.0987 13.6477 40.1827 14.8424 40.3507 15.813C40.5187 16.765 40.8734 17.5397 41.4147 18.137C41.9561 18.7157 42.7494 19.005 43.7947 19.005C44.8401 19.005 45.6334 18.7157 46.1747 18.137C46.7161 17.5397 47.0707 16.765 47.2387 15.813C47.4067 14.8424 47.4907 13.6477 47.4907 12.229ZM54.3363 12.229C54.3363 8.99972 54.915 6.47038 56.0723 4.64105C57.2483 2.81172 59.1896 1.89705 61.8963 1.89705C64.603 1.89705 66.535 2.81172 67.6923 4.64105C68.8683 6.47038 69.4563 8.99972 69.4563 12.229C69.4563 15.477 68.8683 18.025 67.6923 19.873C66.535 21.721 64.603 22.645 61.8963 22.645C59.1896 22.645 57.2483 21.721 56.0723 19.873C54.915 18.025 54.3363 15.477 54.3363 12.229ZM65.5923 12.229C65.5923 10.8477 65.499 9.69038 65.3123 8.75705C65.1443 7.80505 64.7896 7.03038 64.2483 6.43305C63.7256 5.83572 62.9416 5.53705 61.8963 5.53705C60.851 5.53705 60.0576 5.83572 59.5163 6.43305C58.9936 7.03038 58.639 7.80505 58.4523 8.75705C58.2843 9.69038 58.2003 10.8477 58.2003 12.229C58.2003 13.6477 58.2843 14.8424 58.4523 15.813C58.6203 16.765 58.975 17.5397 59.5163 18.137C60.0576 18.7157 60.851 19.005 61.8963 19.005C62.9416 19.005 63.735 18.7157 64.2763 18.137C64.8176 17.5397 65.1723 16.765 65.3403 15.813C65.5083 14.8424 65.5923 13.6477 65.5923 12.229ZM82.1259 3.49305L83.5259 6.01305L79.8859 7.32905L83.5259 8.64505L82.0699 11.249L79.0459 8.75705L79.6899 12.621H76.7779L77.3939 8.75705L74.3979 11.305L72.8579 8.61705L76.4979 7.30105L72.8859 6.04105L74.3139 3.46505L77.4219 5.92905L76.7779 2.03705H79.7179L79.0459 5.92905L82.1259 3.49305ZM98.4179 26.089H94.4699V0.077049H98.4179V26.089ZM120.45 12.677C121.552 12.8824 122.457 13.433 123.166 14.329C123.876 15.225 124.23 16.2517 124.23 17.409C124.23 18.4544 123.969 19.3784 123.446 20.181C122.942 20.965 122.205 21.581 121.234 22.029C120.264 22.477 119.116 22.701 117.79 22.701H109.362V3.15705H117.426C118.752 3.15705 119.89 3.37172 120.842 3.80105C121.813 4.23038 122.541 4.82772 123.026 5.59305C123.53 6.35838 123.782 7.22638 123.782 8.19705C123.782 9.33572 123.474 10.2877 122.858 11.053C122.261 11.8184 121.458 12.3597 120.45 12.677ZM113.282 11.221H116.866C117.8 11.221 118.518 11.0157 119.022 10.605C119.526 10.1757 119.778 9.56905 119.778 8.78505C119.778 8.00105 119.526 7.39438 119.022 6.96505C118.518 6.53572 117.8 6.32105 116.866 6.32105H113.282V11.221ZM117.23 19.509C118.182 19.509 118.92 19.285 119.442 18.837C119.984 18.389 120.254 17.7544 120.254 16.933C120.254 16.093 119.974 15.4397 119.414 14.973C118.854 14.4877 118.098 14.245 117.146 14.245H113.282V19.509H117.23ZM141.999 7.18905V22.701H138.051V20.741C137.547 21.413 136.884 21.945 136.063 22.337C135.26 22.7104 134.383 22.897 133.431 22.897C132.217 22.897 131.144 22.645 130.211 22.141C129.277 21.6184 128.54 20.8624 127.999 19.873C127.476 18.865 127.215 17.6704 127.215 16.289V7.18905H131.135V15.729C131.135 16.961 131.443 17.913 132.059 18.585C132.675 19.2384 133.515 19.565 134.579 19.565C135.661 19.565 136.511 19.2384 137.127 18.585C137.743 17.913 138.051 16.961 138.051 15.729V7.18905H141.999ZM160.706 7.18905L151.102 30.0371H146.93L150.29 22.309L144.074 7.18905H148.47L152.474 18.025L156.534 7.18905H160.706ZM186.207 22.701H182.287L173.411 9.28905V22.701H169.491V3.12905H173.411L182.287 16.569V3.12905H186.207V22.701ZM196.969 22.953C195.476 22.953 194.132 22.6264 192.937 21.973C191.743 21.301 190.8 20.3584 190.109 19.145C189.437 17.9317 189.101 16.5317 189.101 14.945C189.101 13.3584 189.447 11.9584 190.137 10.745C190.847 9.53172 191.808 8.59838 193.021 7.94505C194.235 7.27305 195.588 6.93705 197.081 6.93705C198.575 6.93705 199.928 7.27305 201.141 7.94505C202.355 8.59838 203.307 9.53172 203.997 10.745C204.707 11.9584 205.061 13.3584 205.061 14.945C205.061 16.5317 204.697 17.9317 203.969 19.145C203.26 20.3584 202.289 21.301 201.057 21.973C199.844 22.6264 198.481 22.953 196.969 22.953ZM196.969 19.537C197.679 19.537 198.341 19.369 198.957 19.033C199.592 18.6784 200.096 18.1557 200.469 17.465C200.843 16.7744 201.029 15.9344 201.029 14.945C201.029 13.4704 200.637 12.341 199.853 11.557C199.088 10.7544 198.145 10.353 197.025 10.353C195.905 10.353 194.963 10.7544 194.197 11.557C193.451 12.341 193.077 13.4704 193.077 14.945C193.077 16.4197 193.441 17.5584 194.169 18.361C194.916 19.145 195.849 19.537 196.969 19.537ZM229.441 7.18905L224.905 22.701H220.677L217.849 11.865L215.021 22.701H210.765L206.201 7.18905H210.177L212.921 19.005L215.889 7.18905H220.033L222.945 18.977L225.689 7.18905H229.441Z" fill="#333333"/>
</svg>
